PathFileType	4	(X/Y/Z)	Patient4_TMGait_0pt6_02_right_08.trc.trc
DataRate	CameraRate	NumFrames	NumMarkers	Units	OrigDataRate	OrigDataStartFrame	OrigNumFrames
81.871345029240	81.871345029240	5	33	mm	81.871345029240	18	       141
Frame#	Time	Sacral			L.Shoulder			Chest			R.Shoulder			Neck			R.ASIS			L.ASIS			R.Thigh.Superior			R.Thigh.Lateral			R.Thigh.Inferior			R.Patella			L.Thigh.Superior			L.Thigh.Lateral			L.Thigh.Inferior			L.Patella			L.Shank.Superior			L.Shank.Lateral			L.Shank.Inferior			R.Shank.Superior			R.Shank.Lateral			R.Shank.Inferior			R.Heel			R.Midfoot.Superior			R.Midfoot.Lateral			R.Toe			L.Heel			L.Midfoot.Lateral			L.Midfoot.Superior			L.Toe			L.Elbow			L.Wrist			R.Elbow			R.Wrist			
		X1	Y1	Z1	X2	Y2	Z2	X3	Y3	Z3	X4	Y4	Z4	X5	Y5	Z5	X6	Y6	Z6	X7	Y7	Z7	X8	Y8	Z8	X9	Y9	Z9	X10	Y10	Z10	X11	Y11	Z11	X12	Y12	Z12	X13	Y13	Z13	X14	Y14	Z14	X15	Y15	Z15	X16	Y16	Z16	X17	Y17	Z17	X18	Y18	Z18	X19	Y19	Z19	X20	Y20	Z20	X21	Y21	Z21	X22	Y22	Z22	X23	Y23	Z23	X24	Y24	Z24	X25	Y25	Z25	X26	Y26	Z26	X27	Y27	Z27	X28	Y28	Z28	X29	Y29	Z29	X30	Y30	Z30	X31	Y31	Z31	X32	Y32	Z32	X33	Y33	Z33	

18	9.317642857143	717.730337459512	1007.414868507385	420.386845832770	907.162046524858	1422.388632999394	221.340872548595	1008.055750424786	1356.582048674861	384.552458258726	928.048840657543	1442.214090713329	553.955288738354	893.418883356702	1490.284985289671	371.759865503189	941.798005592211	939.417023361835	537.607119910284	981.619605289406	995.705088009308	248.361070608342	1012.421328294629	768.133966100109	511.557311132021	973.222651137706	645.219554639975	585.455602686689	1061.418343882101	609.357431675323	503.355760130192	1097.327803228714	529.879411199081	518.993412148758	931.890101117897	733.449029422790	290.574201360075	810.290901593292	638.477849016974	239.528160089605	875.946959033373	546.403613868377	298.876769495313	862.442812292013	481.556221929538	310.054077386486	832.841773901693	415.861283810203	306.903580677521	733.327815825667	304.358346778330	268.943483194032	787.156225062292	193.385826269062	340.114620996513	1088.898710185367	444.375395163542	528.349191553230	1048.334962051983	325.183102450642	590.038874612485	1126.321323074425	247.712488906039	536.593175639361	1053.550317311924	53.751750370534	503.870132835414	1210.647862200429	138.619914400080	545.156059624451	1138.765581087785	54.914092775612	576.363540923732	1337.917493425118	110.394068076585	568.521835028031	661.401862661792	39.440660141935	402.700005598846	727.157565331738	35.015187333943	315.220528032070	812.881100725103	95.858854049552	332.463303953042	937.737227849255	43.610830937786	293.761387476495	927.849997767012	1072.693579225048	101.096137523511	1178.126145970883	1014.556473065933	111.148850588639	788.160899169436	1134.927303563248	684.239210491257	760.100248397782	876.086392648874	709.087438783059	
19	9.329857142857	719.754220876254	1005.693391767557	420.947195964558	907.987719985560	1420.776894567726	221.911270331951	1008.697080961482	1355.604744037692	385.474654459121	927.988686037630	1441.305412325716	554.548033754900	893.620727331116	1488.861009375782	372.205528670621	943.591244973741	937.478880826263	538.556805793289	985.955909834478	996.896861266544	248.768053623101	1012.194897230648	763.558346986557	512.973787982771	969.814951509017	640.793410696571	585.423072581377	1058.134384063309	604.235827806324	503.799773317531	1092.606073675124	525.802806270340	518.535668774538	931.760041651260	732.061746414527	290.928609964949	808.916003350681	638.252426030371	239.766026863311	873.562244021710	545.434619240042	298.919436381277	859.361872776362	480.478637472097	310.028081569229	828.996059664968	415.197655993893	306.813486742285	728.124464168883	304.797142824109	269.039003428011	780.940892597729	193.171770416382	339.921562268503	1085.542825672798	440.712925672945	527.624920787118	1046.526272305419	320.515551979875	588.224520880243	1126.445635037160	244.732022136847	534.966679515989	1057.345687748254	49.937626478603	500.546587398133	1213.090079743829	136.990026925349	543.813870766926	1141.766941007591	52.328313787356	573.882539306196	1340.380425070896	110.191543866621	568.042694921229	654.032924100406	39.671005324253	402.567634840036	719.833849708225	35.060928498290	315.191296010329	805.619141436940	95.849109352728	332.369755760158	930.396044834745	43.306169592607	293.776765755897	929.296698307769	1071.105856500707	102.058186085186	1180.480967896491	1018.726815608974	114.173882456413	788.075629063370	1134.588205603331	685.620774108547	763.102298513182	875.321837532662	710.189565701131	
20	9.342071428571	721.906079481659	1003.882854061137	421.781591164775	908.677260837056	1419.090876904600	222.620670052862	1009.344961495751	1354.639084796438	386.473297266135	927.948101911350	1440.305599147554	555.281803394075	893.782371002092	1487.359513911420	372.786043085713	945.635640805077	935.456296580572	539.564116334574	989.689754487413	997.688299438167	249.499067898949	1012.615991937539	759.247755170975	514.245455476283	967.191519957228	636.651493631819	585.224082965399	1055.529382584781	599.511198046594	503.988519280972	1088.587708082486	521.803448196958	517.908112452280	931.920652782358	730.635703319934	291.319849542419	807.898885910763	637.947735921463	240.119135128476	871.612384337671	544.382570674007	299.020436769153	856.717379798132	479.296421531522	310.116020584930	825.553611834744	414.400869861804	306.817719110186	723.226289788896	305.231493946202	269.179483316145	774.878384678311	192.897960905841	339.765326641280	1082.298065807708	436.850870295470	526.674177675444	1043.929592230255	316.041560992999	586.249294992010	1124.973100764958	241.334770288195	533.159594515548	1057.756919075783	46.768250728417	497.382051361592	1212.908076304542	134.289990085934	542.077460844069	1141.437651927188	49.709492086626	571.461002093190	1339.937865810476	107.717534991859	567.184649779954	646.665887696498	39.927581945913	402.402764162502	712.527495850116	35.112612192164	315.146717087928	798.367971764991	95.847189632670	332.285565639916	923.076064124821	42.968178717562	293.786947066142	930.639289121976	1069.409703339112	103.113095392652	1182.474813053907	1021.767111312684	117.222595577306	788.535131360797	1133.832526842110	687.073619772068	767.309744670566	874.104890940765	711.283715574260	
21	9.354285714286	724.162003682698	1002.041188980280	422.872777697222	909.248564764262	1417.379859476525	223.488826958361	1010.023341442253	1353.705374140132	387.555372539321	927.970400674516	1439.234733016091	556.173110642846	893.944803135083	1485.821431397756	373.523994937567	947.918921391580	933.398836757633	540.610031050853	992.774874501656	998.069046808141	250.545897001979	1013.672482464625	755.272263482880	515.349178291391	965.367450144439	632.871096614194	584.890673784907	1053.611922508506	595.262893440558	503.943597953561	1085.287161952292	517.973032431188	517.114787924309	932.378757387599	729.186243836663	291.720470617827	807.234604407106	637.568037903610	240.594493952468	870.100125691289	543.256647311266	299.183536980054	854.524321398821	478.007681299810	310.323648592964	822.519208203669	413.474086351556	306.929520808000	718.642631306925	305.668433399205	269.375602189476	768.972538033601	192.571764341974	339.653958280284	1079.283620976571	432.894183369741	525.534827888269	1040.805804165401	311.803802554216	584.211138428645	1122.233449150021	237.591333213635	531.221825443638	1055.207259593225	44.207502870895	494.505889536301	1210.551133013441	130.580645332338	539.934917608338	1138.276209973298	47.079397512954	569.173506757640	1337.107022590588	103.092426685134	565.864877429415	639.297731415904	40.227825202583	402.200822328218	705.239453770232	35.174566335465	315.083334597227	791.135766875775	95.854874213984	332.206970655667	915.785181559874	42.593762303910	293.787668216592	931.849280440640	1067.649613178938	104.270265311843	1184.126284471639	1023.664462291740	120.274967926623	789.555786389296	1132.686107192517	688.614228840604	772.740600962785	872.499223268213	712.363779444244	
22	9.366500000000	726.499662288964	1000.235619414409	424.198441530283	909.728875169647	1415.705830574978	224.530535678875	1010.758389644272	1352.832728809092	388.725863164861	928.103248692405	1438.128174578272	557.233776872257	894.153066565721	1484.301988167763	374.437927399750	950.423277282695	931.374314924025	541.677816499374	995.175909846323	998.036059374110	251.895715597429	1015.315713275978	751.694790444472	516.277152079245	964.326485039670	629.529143744112	584.477012134152	1052.359026152113	591.560668493038	503.703906897867	1082.674715574569	514.407866009220	516.172861841125	933.126578095778	727.740671651167	292.117302708049	806.908792056976	637.127867809278	241.200464739572	869.020082147445	542.078239142264	299.419732293146	852.794462312187	476.617870912437	310.649645000595	819.888153984895	412.434422064829	307.157182218385	714.370557333450	306.128384155367	269.642093567913	763.224402607746	192.213345283643	339.591897944590	1076.602514913375	428.977531891614	524.268977849938	1037.441390464386	307.874252153673	582.225420779556	1118.607945962361	233.643506164004	529.225381915602	1050.272768171127	42.236741786151	492.024761815453	1206.543230395014	126.070074904783	537.440498370857	1132.908240913921	44.517637349288	567.092942499064	1332.475089016967	96.670801050759	564.073756124417	631.926664939062	40.601858016819	401.959864784772	697.970175853134	35.255901676986	314.999046250642	783.936730577421	95.875312331830	332.124752805394	908.530858727152	42.183915046541	293.775017132737	932.891422746364	1065.881020366630	105.541809694712	1185.434605308058	1024.422280420805	123.310657359798	791.158526069584	1131.197606058280	690.261574429225	779.404542335694	870.591028492628	713.427034995333	
